<svg width="242" height="88" viewBox="0 0 242 88" fill="none" xmlns="http://www.w3.org/2000/svg">
<g filter="url(#filter0_d_4917_20771)">
<path d="M20 38C20 24.7452 30.7452 14 44 14H197.908C211.163 14 221.908 24.7452 221.908 38V38C221.908 51.2548 211.163 62 197.908 62H44C30.7452 62 20 51.2548 20 38V38Z" fill="white" shape-rendering="crispEdges"/>
<path d="M44 15H197.908C210.61 15 220.908 25.2975 220.908 38C220.908 50.7025 210.61 61 197.908 61H44C31.2975 61 21 50.7025 21 38C21 25.2975 31.2975 15 44 15Z" stroke="url(#paint0_linear_4917_20771)" stroke-width="2" shape-rendering="crispEdges"/>
<g clip-path="url(#clip0_4917_20771)">
<path d="M53.4929 41.4351L52.6943 43.2642C52.3873 43.9673 51.4144 43.9673 51.1074 43.2642L50.3088 41.4351C49.5981 39.8073 48.3189 38.5117 46.7233 37.8034L44.5251 36.8276C43.8263 36.5174 43.8263 35.5007 44.5251 35.1905L46.6546 34.2453C48.2913 33.5188 49.5935 32.1751 50.292 30.4918L51.101 28.5425C51.4011 27.8192 52.4006 27.8192 52.7008 28.5425L53.5097 30.4918C54.2083 32.1751 55.5104 33.5188 57.1471 34.2453L59.2766 35.1905C59.9755 35.5007 59.9755 36.5174 59.2766 36.8276L57.0785 37.8034C55.4828 38.5117 54.2036 39.8073 53.4929 41.4351Z" fill="url(#paint1_radial_4917_20771)"/>
<path d="M60.9139 47.2029L60.6893 47.7176C60.5249 48.0945 60.0031 48.0945 59.8388 47.7176L59.6142 47.2029C59.2138 46.2851 58.4927 45.5544 57.5929 45.1546L56.901 44.8472C56.5268 44.681 56.5268 44.1371 56.901 43.9708L57.5542 43.6806C58.4772 43.2705 59.2112 42.5128 59.6047 41.5638L59.8353 41.0076C59.996 40.6199 60.532 40.6199 60.6928 41.0076L60.9234 41.5638C61.3169 42.5128 62.0509 43.2705 62.9739 43.6806L63.6271 43.9708C64.0013 44.1371 64.0013 44.681 63.6271 44.8472L62.9351 45.1546C62.0354 45.5544 61.3142 46.2851 60.9139 47.2029Z" fill="url(#paint2_radial_4917_20771)"/>
</g>
<path d="M75.6541 45L80.9275 30.7227H84.1794L89.5115 45H86.2693L82.7341 35.0098C82.6625 34.7819 82.6007 34.5671 82.5486 34.3652C82.503 34.1634 82.4607 33.9648 82.4216 33.7695H82.3435C82.311 33.9648 82.2686 34.1667 82.2166 34.375C82.171 34.5768 82.1091 34.7884 82.031 35.0098L78.5154 45H75.6541ZM78.6521 41.9043L79.3162 39.6777H85.6248L86.2986 41.9043H78.6521ZM89.8026 41.7969L92.6639 41.8164V41.9727C92.6639 42.4479 92.8234 42.793 93.1424 43.0078C93.4614 43.2161 93.8911 43.3203 94.4315 43.3203C94.9783 43.3203 95.3918 43.2194 95.6717 43.0176C95.9517 42.8158 96.0916 42.5456 96.0916 42.207C96.0916 41.862 95.9419 41.6081 95.6424 41.4453C95.3429 41.276 94.6496 41.0807 93.5623 40.8594C92.3579 40.612 91.479 40.2344 90.9256 39.7266C90.3722 39.2122 90.0955 38.5449 90.0955 37.7246C90.0955 36.748 90.4862 35.9831 91.2674 35.4297C92.0552 34.8698 93.1196 34.5898 94.4608 34.5898C95.7954 34.5898 96.8599 34.8796 97.6541 35.459C98.4484 36.0384 98.8455 36.8327 98.8455 37.8418V37.9688H95.994V37.8027C95.994 37.4121 95.8638 37.1094 95.6033 36.8945C95.3494 36.6797 94.9621 36.5723 94.4412 36.5723C93.9269 36.5723 93.5526 36.6602 93.3182 36.8359C93.0903 37.0052 92.9764 37.2363 92.9764 37.5293C92.9764 37.8223 93.1261 38.0534 93.4256 38.2227C93.7316 38.3919 94.4315 38.5905 95.5252 38.8184C96.7362 39.0527 97.6216 39.4173 98.1815 39.9121C98.7479 40.4069 99.0311 41.0905 99.0311 41.9629C99.0311 43.0111 98.6405 43.8281 97.8592 44.4141C97.0845 44.9935 95.9517 45.2832 94.4608 45.2832C92.9764 45.2832 91.8306 44.9935 91.0233 44.4141C90.216 43.8281 89.8091 42.9948 89.8026 41.9141V41.7969ZM100.836 45V30.1465H103.805V38.4668L107.105 34.873H110.377L103.805 41.8848V45H100.836ZM107.33 45L103.873 40.2734L105.748 38.1836L110.816 45H107.33ZM116.682 45V30.7812H121.477C123.378 30.7812 124.953 31.3672 126.203 32.5391C127.453 33.7109 128.078 35.3483 128.078 37.4512V38.3203C128.078 40.4232 127.453 42.0638 126.203 43.2422C124.953 44.4141 123.378 45 121.477 45H116.682ZM119.709 42.7441H121.389C122.463 42.7441 123.326 42.3828 123.977 41.6602C124.634 40.9375 124.963 39.8633 124.963 38.4375V37.3438C124.963 35.918 124.634 34.847 123.977 34.1309C123.326 33.4147 122.463 33.0566 121.389 33.0566H119.709V42.7441ZM129.629 42.0312C129.629 40.9115 130.059 40.0684 130.918 39.502C131.784 38.9355 132.881 38.6491 134.209 38.6426H136.24V38.0664C136.24 37.6107 136.123 37.2461 135.889 36.9727C135.661 36.6927 135.257 36.5527 134.678 36.5527C134.098 36.5527 133.685 36.6699 133.438 36.9043C133.19 37.1322 133.067 37.4154 133.067 37.7539V37.9199L130.176 37.9102V37.7539C130.176 36.8359 130.602 36.0807 131.455 35.4883C132.315 34.8958 133.434 34.5996 134.815 34.5996C136.195 34.5996 137.269 34.8828 138.037 35.4492C138.812 36.0156 139.199 36.8978 139.199 38.0957V42.7246C139.199 43.1348 139.235 43.5254 139.307 43.8965C139.385 44.2676 139.489 44.5833 139.619 44.8438V45H136.709C136.624 44.8503 136.553 44.6549 136.494 44.4141C136.436 44.1732 136.393 43.9355 136.367 43.7012C136.172 44.0853 135.791 44.4303 135.225 44.7363C134.665 45.0358 133.965 45.1855 133.125 45.1855C132.123 45.1855 131.289 44.9219 130.625 44.3945C129.961 43.8672 129.629 43.0794 129.629 42.0312ZM132.588 41.7773C132.588 42.2201 132.715 42.5749 132.969 42.8418C133.229 43.1022 133.63 43.2324 134.17 43.2324C134.763 43.2324 135.254 43.0436 135.645 42.666C136.042 42.2884 136.24 41.8424 136.24 41.3281V40.3809H134.697C133.981 40.3809 133.451 40.5013 133.106 40.7422C132.761 40.9766 132.588 41.3216 132.588 41.7773ZM140.389 37.0312V34.8828H146.766V37.0312H140.389ZM141.903 41.9629V35.8887L141.922 35.625V32.373H144.842V41.7969C144.842 42.2917 144.927 42.6302 145.096 42.8125C145.272 42.9883 145.519 43.0762 145.838 43.0762C145.994 43.0762 146.147 43.0599 146.297 43.0273C146.447 42.9883 146.59 42.9395 146.727 42.8809V44.9805C146.571 45.0586 146.346 45.127 146.053 45.1855C145.766 45.2441 145.444 45.2734 145.086 45.2734C144.116 45.2734 143.341 45.0098 142.762 44.4824C142.189 43.9486 141.903 43.1087 141.903 41.9629ZM147.77 42.0312C147.77 40.9115 148.2 40.0684 149.059 39.502C149.925 38.9355 151.022 38.6491 152.35 38.6426H154.381V38.0664C154.381 37.6107 154.264 37.2461 154.03 36.9727C153.802 36.6927 153.398 36.5527 152.819 36.5527C152.239 36.5527 151.826 36.6699 151.578 36.9043C151.331 37.1322 151.207 37.4154 151.207 37.7539V37.9199L148.317 37.9102V37.7539C148.317 36.8359 148.743 36.0807 149.596 35.4883C150.455 34.8958 151.575 34.5996 152.955 34.5996C154.336 34.5996 155.41 34.8828 156.178 35.4492C156.953 36.0156 157.34 36.8978 157.34 38.0957V42.7246C157.34 43.1348 157.376 43.5254 157.448 43.8965C157.526 44.2676 157.63 44.5833 157.76 44.8438V45H154.85C154.765 44.8503 154.694 44.6549 154.635 44.4141C154.576 44.1732 154.534 43.9355 154.508 43.7012C154.313 44.0853 153.932 44.4303 153.366 44.7363C152.806 45.0358 152.106 45.1855 151.266 45.1855C150.263 45.1855 149.43 44.9219 148.766 44.3945C148.102 43.8672 147.77 43.0794 147.77 42.0312ZM150.729 41.7773C150.729 42.2201 150.856 42.5749 151.11 42.8418C151.37 43.1022 151.77 43.2324 152.311 43.2324C152.903 43.2324 153.395 43.0436 153.785 42.666C154.183 42.2884 154.381 41.8424 154.381 41.3281V40.3809H152.838C152.122 40.3809 151.591 40.5013 151.246 40.7422C150.901 40.9766 150.729 41.3216 150.729 41.7773ZM163.127 33.125V30.7812H174.514V33.125H170.354V45H167.288V33.125H163.127ZM174.825 45V34.8828H177.676L177.735 36.0254H177.784C177.992 35.6348 178.282 35.3027 178.653 35.0293C179.024 34.7559 179.441 34.6191 179.903 34.6191C180.046 34.6191 180.189 34.6354 180.333 34.668C180.476 34.694 180.577 34.7201 180.635 34.7461V37.2461C180.518 37.2135 180.391 37.1908 180.254 37.1777C180.124 37.1582 179.978 37.1484 179.815 37.1484C179.372 37.1484 178.969 37.2819 178.604 37.5488C178.246 37.8158 177.982 38.1543 177.813 38.5645V45H174.825ZM181.317 40.0879V39.7754C181.317 38.2129 181.792 36.9596 182.743 36.0156C183.7 35.0651 184.924 34.5898 186.415 34.5898C187.919 34.5898 189.094 35.0358 189.94 35.9277C190.793 36.8197 191.219 38.0469 191.219 39.6094V40.6348H183.27V38.8477H188.299V38.6523C188.299 38.1055 188.137 37.6465 187.811 37.2754C187.486 36.8978 187.017 36.709 186.405 36.709C185.708 36.709 185.178 36.9694 184.813 37.4902C184.449 38.0111 184.266 38.7109 184.266 39.5898V40.2246C184.266 41.1165 184.462 41.8229 184.852 42.3438C185.249 42.8581 185.829 43.1152 186.59 43.1152C187.124 43.1152 187.583 42.9883 187.967 42.7344C188.358 42.474 188.671 42.1712 188.905 41.8262L191.053 43.0762C190.728 43.7207 190.181 44.2513 189.413 44.668C188.644 45.0846 187.72 45.293 186.639 45.293C184.979 45.293 183.677 44.8177 182.733 43.8672C181.789 42.9167 181.317 41.6569 181.317 40.0879ZM192.926 45V34.8828H195.905V45H192.926ZM192.692 31.9824C192.692 31.5397 192.839 31.1686 193.132 30.8691C193.431 30.5632 193.861 30.4102 194.421 30.4102C194.974 30.4102 195.397 30.5632 195.69 30.8691C195.99 31.1686 196.139 31.5397 196.139 31.9824C196.139 32.4316 195.99 32.8092 195.69 33.1152C195.391 33.4212 194.964 33.5742 194.411 33.5742C193.857 33.5742 193.431 33.4212 193.132 33.1152C192.839 32.8092 192.692 32.4316 192.692 31.9824Z" fill="url(#paint3_linear_4917_20771)"/>
</g>
<defs>
<filter id="filter0_d_4917_20771" x="0" y="0" width="241.908" height="88" filterUnits="userSpaceOnUse" color-interpolation-filters="sRGB">
<feFlood flood-opacity="0" result="BackgroundImageFix"/>
<feColorMatrix in="SourceAlpha" type="matrix" values="0 0 0 0 0 0 0 0 0 0 0 0 0 0 0 0 0 0 127 0" result="hardAlpha"/>
<feOffset dy="6"/>
<feGaussianBlur stdDeviation="10"/>
<feComposite in2="hardAlpha" operator="out"/>
<feColorMatrix type="matrix" values="0 0 0 0 0 0 0 0 0 0 0 0 0 0 0 0 0 0 0.34 0"/>
<feBlend mode="normal" in2="BackgroundImageFix" result="effect1_dropShadow_4917_20771"/>
<feBlend mode="normal" in="SourceGraphic" in2="effect1_dropShadow_4917_20771" result="shape"/>
</filter>
<linearGradient id="paint0_linear_4917_20771" x1="20" y1="38" x2="221.908" y2="38" gradientUnits="userSpaceOnUse">
<stop stop-color="#4B9BDF"/>
<stop offset="0.48" stop-color="#8C7BCA"/>
<stop offset="1" stop-color="#D56663"/>
</linearGradient>
<radialGradient id="paint1_radial_4917_20771" cx="0" cy="0" r="1" gradientUnits="userSpaceOnUse" gradientTransform="translate(56.3726 36.7675) rotate(78.858) scale(12.3355 12.3415)">
<stop stop-color="#1BA1E3"/>
<stop offset="0.0001" stop-color="#1BA1E3"/>
<stop offset="0.300221" stop-color="#5489D6"/>
<stop offset="0.545524" stop-color="#9B72CB"/>
<stop offset="0.825372" stop-color="#D96570"/>
<stop offset="1" stop-color="#F49C46"/>
</radialGradient>
<radialGradient id="paint2_radial_4917_20771" cx="0" cy="0" r="1" gradientUnits="userSpaceOnUse" gradientTransform="translate(56.372 36.7678) rotate(78.858) scale(12.3355 12.3415)">
<stop stop-color="#1BA1E3"/>
<stop offset="0.0001" stop-color="#1BA1E3"/>
<stop offset="0.300221" stop-color="#5489D6"/>
<stop offset="0.545524" stop-color="#9B72CB"/>
<stop offset="0.825372" stop-color="#D96570"/>
<stop offset="1" stop-color="#F49C46"/>
</radialGradient>
<linearGradient id="paint3_linear_4917_20771" x1="75.908" y1="38" x2="197.908" y2="38" gradientUnits="userSpaceOnUse">
<stop stop-color="#449EE0"/>
<stop offset="0.47" stop-color="#9377C7"/>
<stop offset="1" stop-color="#D7655E"/>
</linearGradient>
<clipPath id="clip0_4917_20771">
<rect width="19.9079" height="20" fill="white" transform="translate(44 28)"/>
</clipPath>
</defs>
</svg>