<svg width="242" height="88" viewBox="0 0 242 88" fill="none" xmlns="http://www.w3.org/2000/svg">
<g filter="url(#filter0_d_4917_19355)">
<path d="M20 38C20 24.7452 30.7452 14 44 14H197.908C211.163 14 221.908 24.7452 221.908 38C221.908 51.2548 211.163 62 197.908 62H44C30.7452 62 20 51.2548 20 38Z" fill="white" shape-rendering="crispEdges"/>
<path d="M21 38C21 25.2975 31.2975 15 44 15H197.908C210.61 15 220.908 25.2975 220.908 38C220.908 50.7025 210.61 61 197.908 61H44C31.2975 61 21 50.7025 21 38Z" stroke="url(#paint0_linear_4917_19355)" stroke-width="2" shape-rendering="crispEdges"/>
<g clip-path="url(#clip0_4917_19355)">
<path d="M53.4924 41.4351L52.6938 43.2642C52.3868 43.9673 51.4139 43.9673 51.1069 43.2642L50.3083 41.4351C49.5976 39.8073 48.3184 38.5117 46.7228 37.8034L44.5246 36.8276C43.8258 36.5174 43.8258 35.5007 44.5246 35.1905L46.6541 34.2453C48.2908 33.5188 49.593 32.1751 50.2915 30.4918L51.1005 28.5425C51.4007 27.8192 52.4001 27.8192 52.7003 28.5425L53.5093 30.4918C54.2078 32.1751 55.5099 33.5188 57.1466 34.2453L59.2761 35.1905C59.975 35.5007 59.975 36.5174 59.2761 36.8276L57.078 37.8034C55.4823 38.5117 54.2031 39.8073 53.4924 41.4351Z" fill="url(#paint1_radial_4917_19355)"/>
<path d="M60.9137 47.2029L60.689 47.7176C60.5247 48.0945 60.0029 48.0945 59.8385 47.7176L59.6139 47.2029C59.2136 46.2851 58.4925 45.5544 57.5927 45.1546L56.9007 44.8472C56.5266 44.681 56.5266 44.1371 56.9007 43.9708L57.554 43.6806C58.4769 43.2705 59.2109 42.5128 59.6044 41.5638L59.8351 41.0076C59.9958 40.6199 60.5318 40.6199 60.6925 41.0076L60.9232 41.5638C61.3166 42.5128 62.0507 43.2705 62.9736 43.6806L63.6268 43.9708C64.0011 44.1371 64.0011 44.681 63.6268 44.8472L62.9349 45.1546C62.0351 45.5544 61.314 46.2851 60.9137 47.2029Z" fill="url(#paint2_radial_4917_19355)"/>
</g>
<path d="M75.6538 45L80.9272 30.7227H84.1792L89.5112 45H86.269L82.7339 35.0098C82.6623 34.7819 82.6004 34.5671 82.5483 34.3652C82.5028 34.1634 82.4604 33.9648 82.4214 33.7695H82.3433C82.3107 33.9648 82.2684 34.1667 82.2163 34.375C82.1707 34.5768 82.1089 34.7884 82.0308 35.0098L78.5151 45H75.6538ZM78.6519 41.9043L79.3159 39.6777H85.6245L86.2983 41.9043H78.6519ZM89.8023 41.7969L92.6637 41.8164V41.9727C92.6637 42.4479 92.8232 42.793 93.1422 43.0078C93.4612 43.2161 93.8909 43.3203 94.4312 43.3203C94.9781 43.3203 95.3915 43.2194 95.6715 43.0176C95.9514 42.8158 96.0914 42.5456 96.0914 42.207C96.0914 41.862 95.9416 41.6081 95.6422 41.4453C95.3427 41.276 94.6493 41.0807 93.5621 40.8594C92.3577 40.612 91.4788 40.2344 90.9254 39.7266C90.372 39.2122 90.0953 38.5449 90.0953 37.7246C90.0953 36.748 90.4859 35.9831 91.2672 35.4297C92.0549 34.8698 93.1194 34.5898 94.4605 34.5898C95.7952 34.5898 96.8596 34.8796 97.6539 35.459C98.4482 36.0384 98.8453 36.8327 98.8453 37.8418V37.9688H95.9937V37.8027C95.9937 37.4121 95.8635 37.1094 95.6031 36.8945C95.3492 36.6797 94.9618 36.5723 94.441 36.5723C93.9267 36.5723 93.5523 36.6602 93.3179 36.8359C93.0901 37.0052 92.9762 37.2363 92.9762 37.5293C92.9762 37.8223 93.1259 38.0534 93.4254 38.2227C93.7314 38.3919 94.4312 38.5905 95.525 38.8184C96.7359 39.0527 97.6213 39.4173 98.1812 39.9121C98.7476 40.4069 99.0308 41.0905 99.0308 41.9629C99.0308 43.0111 98.6402 43.8281 97.859 44.4141C97.0842 44.9935 95.9514 45.2832 94.4605 45.2832C92.9762 45.2832 91.8303 44.9935 91.023 44.4141C90.2157 43.8281 89.8088 42.9948 89.8023 41.9141V41.7969ZM100.836 45V30.1465H103.804V38.4668L107.105 34.873H110.377L103.804 41.8848V45H100.836ZM107.33 45L103.873 40.2734L105.748 38.1836L110.816 45H107.33ZM116.681 45V30.7812H121.476C123.377 30.7812 124.953 31.3672 126.203 32.5391C127.453 33.7109 128.078 35.3483 128.078 37.4512V38.3203C128.078 40.4232 127.453 42.0638 126.203 43.2422C124.953 44.4141 123.377 45 121.476 45H116.681ZM119.709 42.7441H121.388C122.463 42.7441 123.325 42.3828 123.976 41.6602C124.634 40.9375 124.963 39.8633 124.963 38.4375V37.3438C124.963 35.918 124.634 34.847 123.976 34.1309C123.325 33.4147 122.463 33.0566 121.388 33.0566H119.709V42.7441ZM129.629 42.0312C129.629 40.9115 130.058 40.0684 130.918 39.502C131.784 38.9355 132.881 38.6491 134.209 38.6426H136.24V38.0664C136.24 37.6107 136.123 37.2461 135.889 36.9727C135.661 36.6927 135.257 36.5527 134.678 36.5527C134.098 36.5527 133.685 36.6699 133.437 36.9043C133.19 37.1322 133.066 37.4154 133.066 37.7539V37.9199L130.176 37.9102V37.7539C130.176 36.8359 130.602 36.0807 131.455 35.4883C132.314 34.8958 133.434 34.5996 134.814 34.5996C136.195 34.5996 137.269 34.8828 138.037 35.4492C138.812 36.0156 139.199 36.8978 139.199 38.0957V42.7246C139.199 43.1348 139.235 43.5254 139.307 43.8965C139.385 44.2676 139.489 44.5833 139.619 44.8438V45H136.709C136.624 44.8503 136.553 44.6549 136.494 44.4141C136.435 44.1732 136.393 43.9355 136.367 43.7012C136.172 44.0853 135.791 44.4303 135.225 44.7363C134.665 45.0358 133.965 45.1855 133.125 45.1855C132.122 45.1855 131.289 44.9219 130.625 44.3945C129.961 43.8672 129.629 43.0794 129.629 42.0312ZM132.588 41.7773C132.588 42.2201 132.715 42.5749 132.969 42.8418C133.229 43.1022 133.629 43.2324 134.17 43.2324C134.762 43.2324 135.254 43.0436 135.644 42.666C136.042 42.2884 136.24 41.8424 136.24 41.3281V40.3809H134.697C133.981 40.3809 133.45 40.5013 133.105 40.7422C132.76 40.9766 132.588 41.3216 132.588 41.7773ZM140.389 37.0312V34.8828H146.766V37.0312H140.389ZM141.902 41.9629V35.8887L141.922 35.625V32.373H144.842V41.7969C144.842 42.2917 144.926 42.6302 145.096 42.8125C145.271 42.9883 145.519 43.0762 145.838 43.0762C145.994 43.0762 146.147 43.0599 146.297 43.0273C146.447 42.9883 146.59 42.9395 146.727 42.8809V44.9805C146.57 45.0586 146.346 45.127 146.053 45.1855C145.766 45.2441 145.444 45.2734 145.086 45.2734C144.116 45.2734 143.341 45.0098 142.762 44.4824C142.189 43.9486 141.902 43.1087 141.902 41.9629ZM147.77 42.0312C147.77 40.9115 148.199 40.0684 149.059 39.502C149.925 38.9355 151.022 38.6491 152.35 38.6426H154.381V38.0664C154.381 37.6107 154.264 37.2461 154.029 36.9727C153.801 36.6927 153.398 36.5527 152.818 36.5527C152.239 36.5527 151.826 36.6699 151.578 36.9043C151.331 37.1322 151.207 37.4154 151.207 37.7539V37.9199L148.316 37.9102V37.7539C148.316 36.8359 148.743 36.0807 149.596 35.4883C150.455 34.8958 151.575 34.5996 152.955 34.5996C154.335 34.5996 155.41 34.8828 156.178 35.4492C156.953 36.0156 157.34 36.8978 157.34 38.0957V42.7246C157.34 43.1348 157.376 43.5254 157.447 43.8965C157.525 44.2676 157.63 44.5833 157.76 44.8438V45H154.85C154.765 44.8503 154.693 44.6549 154.635 44.4141C154.576 44.1732 154.534 43.9355 154.508 43.7012C154.313 44.0853 153.932 44.4303 153.365 44.7363C152.805 45.0358 152.106 45.1855 151.266 45.1855C150.263 45.1855 149.43 44.9219 148.766 44.3945C148.102 43.8672 147.77 43.0794 147.77 42.0312ZM150.729 41.7773C150.729 42.2201 150.856 42.5749 151.109 42.8418C151.37 43.1022 151.77 43.2324 152.311 43.2324C152.903 43.2324 153.395 43.0436 153.785 42.666C154.182 42.2884 154.381 41.8424 154.381 41.3281V40.3809H152.838C152.122 40.3809 151.591 40.5013 151.246 40.7422C150.901 40.9766 150.729 41.3216 150.729 41.7773ZM163.127 33.125V30.7812H174.514V33.125H170.354V45H167.287V33.125H163.127ZM174.825 45V34.8828H177.676L177.735 36.0254H177.783C177.992 35.6348 178.282 35.3027 178.653 35.0293C179.024 34.7559 179.44 34.6191 179.903 34.6191C180.046 34.6191 180.189 34.6354 180.332 34.668C180.476 34.694 180.576 34.7201 180.635 34.7461V37.2461C180.518 37.2135 180.391 37.1908 180.254 37.1777C180.124 37.1582 179.978 37.1484 179.815 37.1484C179.372 37.1484 178.968 37.2819 178.604 37.5488C178.246 37.8158 177.982 38.1543 177.813 38.5645V45H174.825ZM182.088 45V34.8828H185.067V45H182.088ZM181.854 31.9824C181.854 31.5397 182 31.1686 182.293 30.8691C182.593 30.5632 183.023 30.4102 183.582 30.4102C184.136 30.4102 184.559 30.5632 184.852 30.8691C185.151 31.1686 185.301 31.5397 185.301 31.9824C185.301 32.4316 185.151 32.8092 184.852 33.1152C184.552 33.4212 184.126 33.5742 183.573 33.5742C183.019 33.5742 182.593 33.4212 182.293 33.1152C182 32.8092 181.854 32.4316 181.854 31.9824ZM186.881 40.0879V39.7754C186.881 38.2129 187.357 36.9596 188.307 36.0156C189.264 35.0651 190.488 34.5898 191.979 34.5898C193.483 34.5898 194.658 35.0358 195.504 35.9277C196.357 36.8197 196.784 38.0469 196.784 39.6094V40.6348H188.834V38.8477H193.864V38.6523C193.864 38.1055 193.701 37.6465 193.375 37.2754C193.05 36.8978 192.581 36.709 191.969 36.709C191.273 36.709 190.742 36.9694 190.377 37.4902C190.013 38.0111 189.831 38.7109 189.831 39.5898V40.2246C189.831 41.1165 190.026 41.8229 190.416 42.3438C190.814 42.8581 191.393 43.1152 192.155 43.1152C192.689 43.1152 193.148 42.9883 193.532 42.7344C193.922 42.474 194.235 42.1712 194.469 41.8262L196.618 43.0762C196.292 43.7207 195.745 44.2513 194.977 44.668C194.209 45.0846 193.284 45.293 192.204 45.293C190.543 45.293 189.241 44.8177 188.297 43.8672C187.353 42.9167 186.881 41.6569 186.881 40.0879Z" fill="url(#paint3_linear_4917_19355)"/>
</g>
<defs>
<filter id="filter0_d_4917_19355" x="0" y="0" width="241.908" height="88" filterUnits="userSpaceOnUse" color-interpolation-filters="sRGB">
<feFlood flood-opacity="0" result="BackgroundImageFix"/>
<feColorMatrix in="SourceAlpha" type="matrix" values="0 0 0 0 0 0 0 0 0 0 0 0 0 0 0 0 0 0 127 0" result="hardAlpha"/>
<feOffset dy="6"/>
<feGaussianBlur stdDeviation="10"/>
<feComposite in2="hardAlpha" operator="out"/>
<feColorMatrix type="matrix" values="0 0 0 0 0 0 0 0 0 0 0 0 0 0 0 0 0 0 0.34 0"/>
<feBlend mode="normal" in2="BackgroundImageFix" result="effect1_dropShadow_4917_19355"/>
<feBlend mode="normal" in="SourceGraphic" in2="effect1_dropShadow_4917_19355" result="shape"/>
</filter>
<linearGradient id="paint0_linear_4917_19355" x1="20" y1="38" x2="221.908" y2="38" gradientUnits="userSpaceOnUse">
<stop stop-color="#4B9BDF"/>
<stop offset="0.48" stop-color="#8C7BCA"/>
<stop offset="1" stop-color="#D56663"/>
</linearGradient>
<radialGradient id="paint1_radial_4917_19355" cx="0" cy="0" r="1" gradientUnits="userSpaceOnUse" gradientTransform="translate(56.3721 36.7675) rotate(78.858) scale(12.3355 12.3415)">
<stop stop-color="#1BA1E3"/>
<stop offset="0.0001" stop-color="#1BA1E3"/>
<stop offset="0.300221" stop-color="#5489D6"/>
<stop offset="0.545524" stop-color="#9B72CB"/>
<stop offset="0.825372" stop-color="#D96570"/>
<stop offset="1" stop-color="#F49C46"/>
</radialGradient>
<radialGradient id="paint2_radial_4917_19355" cx="0" cy="0" r="1" gradientUnits="userSpaceOnUse" gradientTransform="translate(56.3717 36.7678) rotate(78.858) scale(12.3355 12.3415)">
<stop stop-color="#1BA1E3"/>
<stop offset="0.0001" stop-color="#1BA1E3"/>
<stop offset="0.300221" stop-color="#5489D6"/>
<stop offset="0.545524" stop-color="#9B72CB"/>
<stop offset="0.825372" stop-color="#D96570"/>
<stop offset="1" stop-color="#F49C46"/>
</radialGradient>
<linearGradient id="paint3_linear_4917_19355" x1="75.9077" y1="38" x2="197.908" y2="38" gradientUnits="userSpaceOnUse">
<stop stop-color="#449EE0"/>
<stop offset="0.47" stop-color="#9377C7"/>
<stop offset="1" stop-color="#D7655E"/>
</linearGradient>
<clipPath id="clip0_4917_19355">
<rect width="19.9079" height="20" fill="white" transform="translate(44 28)"/>
</clipPath>
</defs>
</svg>
