<svg width="40" height="41" viewBox="0 0 40 41" fill="none" xmlns="http://www.w3.org/2000/svg">
<path d="M23.7257 10.8416C23.8178 10.6732 23.9535 10.5326 24.1186 10.4347C24.2837 10.3368 24.4721 10.2852 24.6641 10.2852C24.856 10.2852 25.0444 10.3368 25.2095 10.4347C25.3746 10.5326 25.5103 10.6732 25.6024 10.8416L28.6924 16.4928C29.8697 18.6458 31.6398 20.4159 33.7928 21.5933L39.4431 24.6832C40.1853 25.0892 40.1853 26.154 39.4431 26.5599L33.7928 29.6499C31.6398 30.8272 29.8697 32.5974 28.6924 34.7503L25.6024 40.4006C25.1965 41.1429 24.1317 41.1429 23.7257 40.4006L20.6357 34.7503C19.4584 32.5974 17.6883 30.8272 15.5353 29.6499L9.8841 26.5599C9.71567 26.4679 9.57512 26.3322 9.47721 26.167C9.3793 26.0019 9.32764 25.8135 9.32764 25.6216C9.32764 25.4296 9.3793 25.2412 9.47721 25.0761C9.57512 24.911 9.71567 24.7753 9.8841 24.6832L15.5353 21.5933C17.6883 20.4159 19.4584 18.6458 20.6357 16.4928L23.7257 10.8416Z" fill="#ADB5B2"/>
<path d="M6.90798 1.43309C6.98694 1.28897 7.10321 1.16873 7.2446 1.08498C7.38599 1.00122 7.5473 0.957031 7.71163 0.957031C7.87596 0.957031 8.03727 1.00122 8.17866 1.08498C8.32005 1.16873 8.43632 1.28897 8.51528 1.43309L10.0163 4.1785C10.5211 5.10112 11.2799 5.85962 12.2027 6.36402L14.9472 7.86593C15.0913 7.94489 15.2116 8.06116 15.2953 8.20254C15.3791 8.34393 15.4233 8.50524 15.4233 8.66958C15.4233 8.83391 15.3791 8.99522 15.2953 9.13661C15.2116 9.278 15.0913 9.39426 14.9472 9.47322L12.2018 10.9733C11.2788 11.478 10.52 12.2368 10.0154 13.1597L8.51436 15.9042C8.4354 16.0484 8.31914 16.1686 8.17775 16.2523C8.03636 16.3361 7.87505 16.3803 7.71071 16.3803C7.54638 16.3803 7.38507 16.3361 7.24368 16.2523C7.10229 16.1686 6.98603 16.0484 6.90707 15.9042L5.40699 13.1588C4.90234 12.2359 4.14351 11.477 3.22055 10.9724L0.476058 9.47139C0.331937 9.39243 0.211701 9.27617 0.127947 9.13478C0.044192 8.99339 0 8.83208 0 8.66774C0 8.50341 0.044192 8.3421 0.127947 8.20071C0.211701 8.05932 0.331937 7.94306 0.476058 7.8641L3.22147 6.36402C4.14409 5.85923 4.90258 5.10042 5.40699 4.17758L6.90798 1.43309Z" fill="#ADB5B2"/>
</svg>
