<svg width="50" height="41" viewBox="0 0 50 41" fill="none" xmlns="http://www.w3.org/2000/svg">
<g clip-path="url(#clip0_4946_16930)">
<path d="M33.2045 11.9898L37.5255 7.66879L37.8135 5.84937C29.9395 -1.31044 17.4228 -0.498593 10.3247 7.54335C8.35307 9.77694 6.89035 12.5616 6.11035 15.4371L7.65792 15.2191L16.2997 13.794L16.9669 13.1117C20.8109 8.88995 27.3105 8.32199 31.749 11.914L33.2045 11.9898Z" fill="#ADB5B2"/>
<path d="M43.68 15.3102C42.6868 11.6527 40.6478 8.36476 37.8126 5.84961L31.7482 11.9141C34.3089 14.0065 35.7678 17.1587 35.7052 20.465V21.5415C38.686 21.5415 41.1027 23.958 41.1027 26.9387C41.1027 29.9197 38.686 32.2756 35.7052 32.2756H24.8953L23.834 33.4279V39.9016L24.8953 40.9174H35.7052C43.4586 40.9778 49.793 34.802 49.8534 27.0486C49.8899 22.349 47.5728 17.9432 43.68 15.3102Z" fill="#ADB5B2"/>
<path d="M14.1011 40.917H24.8959V32.2751H14.1011C13.332 32.2749 12.5871 32.1097 11.8877 31.79L10.3563 32.2599L6.00501 36.5809L5.62598 38.0516C8.06617 39.8941 11.0435 40.9302 14.1011 40.917Z" fill="#ADB5B2"/>
<path d="M14.1009 12.8839C6.34731 12.9301 0.099549 19.2532 0.145763 27.0066C0.171588 31.3363 2.19372 35.412 5.62576 38.0515L11.8875 31.7899C9.17081 30.5625 7.96363 27.3654 9.191 24.6489C10.4182 21.9324 13.6155 20.7252 16.3318 21.9524C17.5289 22.4932 18.4875 23.452 19.0283 24.6489L25.29 18.3874C22.6258 14.9045 18.486 12.8682 14.1009 12.8839Z" fill="#ADB5B2"/>
</g>
<defs>
<clipPath id="clip0_4946_16930">
<rect width="49.7087" height="40" fill="white" transform="translate(0.145508 0.957031)"/>
</clipPath>
</defs>
</svg>
