<svg width="352" height="28" viewBox="0 0 352 28" fill="none" xmlns="http://www.w3.org/2000/svg">
<g clip-path="url(#clip0_4940_322)">
<path d="M70.4408 13.256C70.4408 13.6618 70.304 14.0676 70.1672 14.4734C70.0304 14.8792 69.7569 15.1498 69.4833 15.4203C69.2098 15.6908 68.7994 15.9614 68.3891 16.0966C67.9788 16.2319 67.5684 16.3672 67.1581 16.3672H62.7812C62.3709 16.3672 61.9605 16.2319 61.5502 16.0966C61.1399 15.9614 60.8663 15.6908 60.456 15.4203C60.1824 15.1498 59.9089 14.8792 59.7721 14.4734C59.6353 14.0676 59.4985 13.6618 59.4985 13.256V10.9565C59.4985 10.5507 59.6353 10.1449 59.7721 9.73914C59.9089 9.33334 60.1824 9.06281 60.456 8.79228C60.8663 8.52174 61.1399 8.38648 61.5502 8.11595C61.9605 7.98068 62.3709 7.84542 62.7812 7.84542H68.2523V5.9517C68.2523 5.81643 68.2523 5.68116 68.3891 5.68116C68.5259 5.5459 68.5259 5.5459 68.6627 5.5459H69.8937C70.0304 5.5459 70.1672 5.5459 70.1672 5.68116C70.304 5.81643 70.304 5.81643 70.304 5.9517V13.256H70.4408ZM68.2523 10.2802C68.2523 10.0097 68.1156 9.8744 67.842 9.8744H62.7812C62.5077 9.8744 62.2341 10.0097 61.9605 10.1449C61.687 10.2802 61.687 10.5507 61.687 10.9565V13.3913C61.687 13.7971 61.8238 14.0676 61.9605 14.2029C62.2341 14.3382 62.3709 14.4734 62.7812 14.4734H67.1581C67.4317 14.4734 67.7052 14.3382 67.9788 14.2029C68.2523 14.0676 68.2523 13.7971 68.2523 13.3913V10.2802Z" fill="white"/>
<path d="M85.6229 13.256C85.6229 13.6618 85.4861 14.0676 85.3494 14.4734C85.2126 14.8792 84.939 15.1498 84.6655 15.4203C84.3919 15.6908 83.9816 15.9614 83.5712 16.0966C83.1609 16.2319 82.7506 16.3672 82.3402 16.3672H77.9633C77.553 16.3672 77.1427 16.2319 76.7323 16.0966C76.322 15.9614 76.0484 15.6908 75.6381 15.4203C75.3646 15.1498 75.091 14.744 74.9542 14.4734C74.8174 14.0676 74.6807 13.6618 74.6807 13.256C74.6807 12.8502 74.8174 12.4444 74.9542 12.0387C75.091 11.6329 75.3646 11.3623 75.6381 10.9565C75.9117 10.5507 76.322 10.4155 76.7323 10.2802C77.1427 10.1449 77.553 10.0097 77.9633 10.0097H83.0241C83.2977 10.0097 83.4345 9.8744 83.4345 9.60387V8.79228C83.4345 8.38648 83.2977 8.11595 83.1609 7.84542C82.8873 7.57488 82.7506 7.43962 82.3402 7.43962H79.6047C79.4679 7.43962 79.3311 7.43962 79.1943 7.30435C79.0576 7.16909 79.0576 7.03382 79.0576 6.89856V6.08696C79.0576 5.9517 79.0576 5.81643 79.1943 5.68116C79.3311 5.5459 79.4679 5.5459 79.6047 5.5459H82.3402C82.7506 5.5459 83.1609 5.68116 83.5712 5.81643C83.9816 5.9517 84.2551 6.22223 84.6655 6.49276C84.939 6.76329 85.2126 7.16909 85.3494 7.57488C85.4861 7.98068 85.6229 8.38648 85.6229 8.79228V13.256ZM83.4345 12.3092C83.4345 12.0387 83.2977 11.9034 83.0241 11.9034H77.9633C77.6898 11.9034 77.4162 12.0387 77.1427 12.3092C76.8691 12.5797 76.8691 12.8502 76.8691 13.256C76.8691 13.6618 77.0059 13.9324 77.1427 14.2029C77.4162 14.4734 77.553 14.6087 77.9633 14.6087H82.3402C82.6138 14.6087 82.8873 14.4734 83.1609 14.3382C83.4345 14.2029 83.4345 13.6618 83.4345 13.256V12.3092Z" fill="white"/>
<path d="M100.942 14.3382C100.805 14.744 100.532 15.0145 100.258 15.285C99.9848 15.5556 99.5745 15.8261 99.1641 15.9614C98.7538 16.0966 98.3435 16.2319 97.9331 16.2319H94.7872C94.3769 16.2319 93.9666 16.0966 93.5562 15.9614C93.1459 15.8261 92.8723 15.5556 92.462 15.285C92.0517 15.0145 91.9149 14.6087 91.7781 14.3382C91.6413 13.9324 91.5046 13.5266 91.5046 13.1208V9.06281H90.4103C90.2735 9.06281 90.1368 9.06281 90.1368 8.92754C90 8.79228 90 8.79228 90 8.65701V7.57488C90 7.43962 90 7.30435 90.1368 7.30435C90.2736 7.16909 90.2735 7.16909 90.4103 7.16909H91.6413V5.9517C91.6413 5.81643 91.6413 5.68116 91.7781 5.68116C91.9149 5.68116 91.9149 5.5459 92.0517 5.5459H93.4195C93.5562 5.5459 93.693 5.5459 93.693 5.68116C93.8298 5.81643 93.8298 5.81643 93.8298 5.9517V7.16909H100.805C100.942 7.16909 101.079 7.16909 101.079 7.30435C101.216 7.30435 101.216 7.43962 101.216 7.57488V8.65701C101.216 8.79228 101.216 8.92754 101.079 8.92754C100.942 9.06281 100.942 9.06281 100.805 9.06281H93.8298V13.1208C93.8298 13.5266 93.9666 13.7971 94.1033 13.9324C94.3769 14.2029 94.5137 14.3382 94.924 14.3382H98.0699C98.3435 14.3382 98.617 14.2029 98.8906 13.9324C99.1641 13.6618 99.1641 13.3913 99.1641 13.1208V12.4444C99.1641 12.3092 99.1641 12.1739 99.3009 12.1739C99.4377 12.0387 99.4377 12.0387 99.5745 12.0387H100.942C101.079 12.0387 101.216 12.0387 101.216 12.1739C101.216 12.3092 101.216 12.4444 101.216 12.4444V13.1208C101.216 13.6618 101.216 14.0676 100.942 14.3382Z" fill="white"/>
<path d="M116.262 13.256C116.262 13.6618 116.125 14.0676 115.988 14.4734C115.851 14.8792 115.578 15.1498 115.304 15.4203C115.031 15.6908 114.62 15.9614 114.21 16.0966C113.8 16.2319 113.389 16.3672 112.979 16.3672H108.602C108.192 16.3672 107.781 16.2319 107.371 16.0966C106.961 15.9614 106.687 15.6908 106.277 15.4203C106.003 15.1498 105.73 14.744 105.593 14.4734C105.456 14.0676 105.319 13.6618 105.319 13.256C105.319 12.8502 105.456 12.4444 105.593 12.0387C105.73 11.6329 106.003 11.3623 106.277 10.9565C106.55 10.5507 106.961 10.4155 107.371 10.2802C107.781 10.1449 108.192 10.0097 108.602 10.0097H113.663C113.936 10.0097 114.073 9.8744 114.073 9.60387V8.79228C114.073 8.38648 113.936 8.11595 113.8 7.84542C113.526 7.57488 113.389 7.43962 112.979 7.43962H110.243C110.107 7.43962 109.97 7.43962 109.833 7.30435C109.696 7.16909 109.696 7.03382 109.696 6.89856V6.08696C109.696 5.9517 109.696 5.81643 109.833 5.68116C109.97 5.5459 110.107 5.5459 110.243 5.5459H112.979C113.389 5.5459 113.8 5.68116 114.21 5.81643C114.62 5.9517 114.894 6.22223 115.304 6.49276C115.578 6.76329 115.851 7.16909 115.988 7.57488C116.125 7.98068 116.262 8.38648 116.262 8.79228V13.256ZM114.073 12.3092C114.073 12.0387 113.936 11.9034 113.663 11.9034H108.602C108.328 11.9034 108.055 12.0387 107.781 12.3092C107.508 12.5797 107.508 12.8502 107.508 13.256C107.508 13.6618 107.645 13.9324 107.781 14.2029C108.055 14.4734 108.192 14.6087 108.602 14.6087H112.979C113.252 14.6087 113.526 14.4734 113.8 14.3382C114.073 14.2029 114.073 13.9324 114.073 13.5266V12.3092Z" fill="white"/>
<path d="M137.052 14.3382C136.915 14.744 136.641 15.0145 136.368 15.285C136.094 15.5556 135.684 15.8261 135.274 15.9614C134.863 16.0966 134.453 16.2319 134.043 16.2319H130.897C130.486 16.2319 130.076 16.0966 129.666 15.9614C129.255 15.8261 128.982 15.5556 128.571 15.285C128.161 15.0145 128.024 14.6087 127.887 14.3382C127.751 13.9324 127.614 13.5266 127.614 13.1208V9.06281H126.52C126.383 9.06281 126.246 9.06281 126.246 8.92754C126.109 8.79228 126.109 8.79228 126.109 8.65701V7.57488C126.109 7.43962 126.109 7.30435 126.246 7.30435C126.383 7.16909 126.383 7.16909 126.52 7.16909H127.614V5.9517C127.614 5.81643 127.614 5.68116 127.751 5.68116C127.887 5.68116 127.887 5.5459 128.024 5.5459H129.392C129.529 5.5459 129.666 5.5459 129.666 5.68116C129.802 5.81643 129.802 5.81643 129.802 5.9517V7.16909H136.778C136.915 7.16909 137.052 7.16909 137.052 7.30435C137.188 7.43962 137.188 7.43962 137.188 7.57488V8.65701C137.188 8.79228 137.188 8.92754 137.052 8.92754C136.915 9.06281 136.915 9.06281 136.778 9.06281H129.802V13.1208C129.802 13.5266 129.939 13.7971 130.076 13.9324C130.349 14.2029 130.486 14.3382 130.897 14.3382H134.043C134.316 14.3382 134.59 14.2029 134.863 13.9324C135.137 13.6618 135.137 13.3913 135.137 13.1208V12.4444C135.137 12.3092 135.137 12.1739 135.274 12.1739C135.41 12.1739 135.41 12.0387 135.547 12.0387H136.915C137.052 12.0387 137.188 12.0387 137.188 12.1739C137.325 12.3092 137.325 12.3092 137.325 12.4444V13.1208C137.325 13.6618 137.188 14.0676 137.052 14.3382Z" fill="white"/>
<path d="M152.644 10.8213C152.508 10.9565 152.508 10.9565 152.371 10.9565H151.14C151.003 10.9565 150.866 10.9565 150.866 10.8213C150.729 10.686 150.729 10.686 150.729 10.5507V8.79228C150.729 8.38648 150.593 8.11595 150.456 7.98068C150.182 7.71015 150.046 7.57488 149.635 7.57488H145.258C144.985 7.57488 144.711 7.71015 144.438 7.98068C144.164 8.25121 144.164 8.52174 144.164 8.79228V15.9614C144.164 16.0966 144.164 16.2319 144.027 16.2319C143.891 16.3672 143.891 16.3672 143.754 16.3672H142.249C142.112 16.3672 141.976 16.3672 141.976 16.2319C141.839 16.0966 141.839 16.0966 141.839 15.9614V8.79228C141.839 8.38648 141.976 7.98068 142.112 7.57488C142.249 7.16909 142.523 6.89856 142.796 6.49276C143.07 6.22223 143.48 5.9517 143.891 5.81643C144.301 5.68116 144.711 5.5459 145.122 5.5459H149.498C149.909 5.5459 150.319 5.68116 150.729 5.81643C151.14 5.9517 151.413 6.22223 151.824 6.49276C152.097 6.76329 152.371 7.16909 152.508 7.43962C152.644 7.84542 152.781 8.25121 152.781 8.65701V10.4155C152.781 10.686 152.644 10.686 152.644 10.8213Z" fill="white"/>
<path d="M156.337 8.65701C156.337 8.25121 156.474 7.84542 156.611 7.43962C156.748 7.03382 157.021 6.76329 157.295 6.49276C157.568 6.22223 157.979 5.9517 158.389 5.81643C158.799 5.68116 159.21 5.5459 159.62 5.5459H163.997C164.407 5.5459 164.818 5.68116 165.228 5.81643C165.638 5.9517 165.912 6.22223 166.322 6.49276C166.596 6.76329 166.869 7.16909 167.006 7.43962C167.143 7.84542 167.28 8.25121 167.28 8.65701C167.28 9.06281 167.143 9.4686 167.006 9.8744C166.869 10.2802 166.596 10.5507 166.322 10.9565C166.049 11.3623 165.638 11.4976 165.228 11.6329C164.818 11.7681 164.407 11.9034 163.997 11.9034H158.936C158.663 11.9034 158.526 12.0387 158.526 12.3092V13.1208C158.526 13.5266 158.663 13.7971 158.799 14.0676C159.073 14.3382 159.21 14.4734 159.62 14.4734H162.356C162.492 14.4734 162.629 14.4734 162.766 14.6087C162.903 14.744 162.903 14.8792 162.903 15.0145V15.8261C162.903 15.9614 162.903 16.0966 162.766 16.2319C162.629 16.3672 162.492 16.3672 162.356 16.3672H159.62C159.21 16.3672 158.799 16.2319 158.389 16.0966C157.979 15.9614 157.705 15.6908 157.295 15.4203C157.021 15.1498 156.748 14.744 156.611 14.3382C156.474 13.9324 156.337 13.5266 156.337 13.1208V8.65701ZM158.389 9.60387C158.389 9.8744 158.526 10.0097 158.799 10.0097H163.86C164.134 10.0097 164.407 9.8744 164.681 9.60387C164.954 9.33334 164.954 9.06281 164.954 8.65701C164.954 8.25121 164.818 7.98068 164.681 7.71015C164.407 7.43962 164.271 7.30435 163.86 7.30435H159.483C159.21 7.30435 158.936 7.43962 158.663 7.57488C158.389 7.71015 158.389 7.98068 158.389 8.38648V9.60387Z" fill="white"/>
<path d="M179.863 16.2319C179.726 16.3672 179.726 16.3672 179.589 16.3672H169.605C169.468 16.3672 169.331 16.3672 169.331 16.2319C169.194 16.0966 169.194 16.0966 169.194 15.9614V14.8792C169.194 14.744 169.194 14.6087 169.331 14.6087C169.468 14.4734 169.468 14.4734 169.605 14.4734H173.024C173.161 14.4734 173.298 14.4734 173.298 14.3382C173.434 14.2029 173.434 14.2029 173.434 14.0676V7.98068C173.434 7.84542 173.434 7.71015 173.298 7.71015C173.161 7.57488 173.161 7.57488 173.024 7.57488H171.656C171.52 7.57488 171.383 7.57488 171.383 7.43962C171.246 7.30435 171.246 7.30435 171.246 7.16909V5.9517C171.246 5.81643 171.246 5.68116 171.383 5.68116C171.52 5.5459 171.52 5.5459 171.656 5.5459H177.264C177.401 5.5459 177.538 5.5459 177.538 5.68116C177.675 5.81643 177.675 5.81643 177.675 5.9517V7.03382C177.675 7.16909 177.675 7.30435 177.538 7.30435C177.401 7.43962 177.401 7.43962 177.264 7.43962H175.896C175.76 7.43962 175.623 7.43962 175.623 7.57488C175.486 7.71015 175.486 7.71015 175.486 7.84542V13.9324C175.486 14.0676 175.486 14.2029 175.623 14.2029C175.76 14.3382 175.76 14.3382 175.896 14.3382H179.316C179.453 14.3382 179.589 14.3382 179.589 14.4734C179.726 14.6087 179.726 14.6087 179.726 14.744V15.8261C180 15.9614 180 16.0966 179.863 16.2319Z" fill="white"/>
<path d="M48.009 9.73913V12.0386C48.009 12.3092 47.8722 12.4444 47.7355 12.5797C47.5987 12.715 47.3251 12.8502 47.1883 12.8502H30.5014V15.4203C30.5014 15.6908 30.5014 15.8261 30.5014 15.9614C30.5014 16.0966 30.5014 16.2319 30.6382 16.3671C30.6382 16.5024 30.775 16.6377 30.775 16.7729C30.775 16.9082 30.9117 17.0435 31.0485 17.1787C31.3221 17.4493 31.4589 17.5845 31.7324 17.7198C32.006 17.8551 32.2795 17.8551 32.5531 17.8551C32.8266 17.8551 32.9634 17.9903 33.237 18.1256C33.5105 18.2609 33.6473 18.5314 33.6473 18.8019V20.5604C33.6473 20.8309 33.5105 21.1014 33.237 21.2367C32.9634 21.5072 32.6899 21.6425 32.5531 21.6425C31.5956 21.6425 30.775 21.5072 29.9543 21.1014C29.8175 21.1014 29.8175 20.9662 29.6807 20.9662H29.544C29.2704 20.8309 29.1336 20.8309 28.9969 20.6957C28.9969 20.6957 28.8601 20.6957 28.8601 20.5604C28.5865 20.4251 28.4497 20.2899 28.313 20.1546C28.1762 20.0193 28.0394 20.0193 27.9026 19.7488C27.6291 19.4783 27.3555 19.2077 27.082 18.8019C26.8084 18.3961 26.6716 18.1256 26.5348 17.7198C26.3981 17.5845 26.3981 17.314 26.3981 17.1787C26.2613 17.0435 26.2613 16.7729 26.2613 16.6377C26.2613 16.5024 26.2613 16.2319 26.1245 16.0966V15.9614C26.1245 15.8261 26.1245 15.5556 26.1245 15.4203V0.94686C26.1245 0.676328 26.2613 0.541063 26.3981 0.405797C26.5348 0.135266 26.6716 0 26.9452 0H29.544C29.8175 0 29.9543 0.135266 30.0911 0.270531L30.2279 0.405797C30.3646 0.541063 30.3646 0.676329 30.3646 0.811594V8.79227H47.0516C47.3251 8.79227 47.4619 8.92754 47.5987 9.0628C48.009 9.33333 48.009 9.4686 48.009 9.73913Z" fill="#00A35F"/>
<path d="M22.0213 15.8261C22.0213 16.6377 21.8845 17.4493 21.4742 18.2609C21.0638 19.0725 20.6535 19.6135 20.1064 20.1546C19.5593 20.6957 18.8754 21.1014 18.0547 21.5072C17.234 21.7778 16.4134 21.913 15.4559 21.913H6.56535C5.6079 21.913 4.78723 21.7778 3.96657 21.5072C3.1459 21.2367 2.46201 20.8309 1.91489 20.1546C1.36778 19.6135 0.820669 18.9372 0.547112 18.2609C0.136778 17.4493 0 16.6377 0 15.6908V15.0145C0 14.2029 0.136778 13.256 0.547112 12.5797C0.957447 11.7681 1.36778 11.2271 1.91489 10.686C2.46201 10.1449 3.28267 9.73913 3.96657 9.4686C4.78723 9.19807 5.6079 9.0628 6.56535 9.0628H17.5076V0.811594C17.5076 0.541063 17.6444 0.405797 17.7812 0.270531C18.0547 0.135266 18.1915 0 18.465 0H21.0638C21.3374 0 21.4742 0.135266 21.7477 0.270531C21.8845 0.405797 22.0213 0.676328 22.0213 0.94686V15.8261ZM17.6444 13.6618C17.6444 13.1208 17.3708 12.9855 16.9605 12.9855H6.56535C6.01824 12.8502 5.47112 13.1208 5.06079 13.5266C4.65046 13.9324 4.3769 14.4734 4.3769 15.1498V15.8261C4.3769 16.5024 4.65046 17.0435 5.06079 17.4493C5.47112 17.8551 6.01824 17.9903 6.56535 17.9903H15.4559C16.1398 17.9903 16.5502 17.8551 16.9605 17.4493C17.3708 17.0435 17.6444 16.5024 17.6444 15.8261V13.6618Z" fill="#00A35F"/>
</g>
<defs>
<clipPath id="clip0_4940_322">
<rect width="180" height="21.913" fill="white"/>
</clipPath>
</defs>
</svg>
